<?xml version="1.0" encoding="utf-8"?>
<!-- Generator: Adobe Illustrator 24.0.2, SVG Export Plug-In . SVG Version: 6.00 Build 0)  -->
<svg version="1.1" id="Capa_1" xmlns="http://www.w3.org/2000/svg" xmlns:xlink="http://www.w3.org/1999/xlink" x="0px" y="0px"
	 viewBox="0 0 423 391" style="enable-background:new 0 0 423 391;" xml:space="preserve">
<path d="M62.91,235.27c14.11-8.21,29.72-14.8,32.61-14.8c2.78,0,5.2,1.73,5.2,1.73s1.39-2.2,1.39-4.51
	c0-4.39-6.94-12.84-10.52-12.84c-4.84,0-17.34,3.83-26.87,7.71c2.95-23.34,9.3-68.03,9.3-74.44c0-7.29-17.35-9.48-20.12-9.48
	c-2.78,0-3.35,3.12-3.35,3.12c1.39,0.81,1.85,1.39,1.85,2.2c0,6.59-3.12,72.39-3.12,86.96C49.27,224.28,57.24,232.96,62.91,235.27z
	 M69.73,191.79c0.12,2.54,0.69,5.2,6.24,7.29c5.55,2.08,11.45,4.28,11.56-2.2c0.04-2.23,0.96-10.19,2.23-20.22
	c1.92,1.21,4.17,2.3,5.17,2.3c1.01,0,4-2.45,6.33-4.51c2.07,15.08,3.8,27.35,3.96,28.56c0.35,2.66,0.93,3.93,1.97,4.63
	c0.23,1.97,2.2,4.28,7.63,4.74s11.33-1.27,11.33-6.36c0-1.62-1.73-2.89-1.73-2.89c-2.89-16.31-7.63-55.28-7.98-59.09
	c1.62-14.57,2.43-30.76,2.43-32.26c0-4.05-20.59-6.97-24.28-4.51c-1.04,0.69-3.93,4.28-9.14,28.22
	c-5.2,23.94-12.49,53.19-13.18,55.51C71.12,191.33,69.73,191.79,69.73,191.79z M95.73,132.15c0.87,7.15,1.97,15.67,3.11,24.29
	c-2.09,1.11-4.62,2.39-6.9,3.53C93.27,149.97,94.66,139.83,95.73,132.15z M153.79,201.11c2.07,0,28.67-13.16,33.21-13.16
	c1.82,0,2.72,0.56,3.41,1.14c0.46-2.3,0.26-5.6-4.24-9.64c-4.49-4.03-6.96-4.78-8.79-4.78c-1.66,0-10.01,4.39-15.32,7.27
	c5.44-46.66,9.94-73.89,9.94-75.9c0-2.07-1.04-6.57-9.68-7.84c-8.64-1.27-13.25-1.96-14.17,2.19c0,0,2.07,1.15,2.07,2.3
	s-5.88,79.06-6.57,82.51c-0.69,3.46-1.04,5.65,1.84,9.33C148.37,198.23,151.71,201.11,153.79,201.11z M176.47,163.12
	c0,3.01,1.17,5.07,7.4,6.86c3.92,5.83,8.78,10.47,10.44,10.47c1.91,0,19.11-9.94,22.68-9.94c1.53,0,3.31,1.15,4.2,1.91
	c1.15-1.15,0.76-3.31,0.13-4.97c-0.64-1.66-7.26-12.36-11.21-12.36c-2.85,0-11.41,2.85-17.49,5.31
	c2.88-17.53,13.79-63.49,13.79-66.47c0-3.19-1.15-5.99-9.94-8.03c-8.79-2.04-11.34-0.89-12.36,0.51c0,0,0.51,0.51,0.38,1.91
	C184.37,89.72,176.47,131.9,176.47,163.12z M202.08,147.19c-0.25,1.66,0.49,3.48,4.59,4.97c5.99,2.18,14.21,5.31,15.93-2.68
	c0.45-2.12,1.08-5.43,1.81-9.53c1.56,0.12,3.19-0.44,4.92-1.95c4.23-3.67,7.45-7.1,9.37-9.46c1.52,11.77,2.91,22.54,3.76,29.03
	c-0.77,5.79,0.77,5.92,2.58,8.24c1.8,2.32,4.12,3.09,8.37,3.09c10.3,0,11.2-5.28,11.2-6.7s-1.42-1.8-1.67-3.48
	c-0.26-1.67-8.11-82.27-8.5-89.74c-0.39-7.47-17.51-6.31-20.86-6.05c-3.35,0.26-4.51,2.7-4.76,4.76c1.42,0.39,1.8,1.55,2.32,3.61
	c0.08,0.34,0.37,2.32,0.8,5.49c-1.84-0.01-3.91,0.2-4.63,1.71c-1.02,2.17-22.04,66-22.94,68.55
	C203.61,147.25,202.08,147.19,202.08,147.19z M233.62,89.46c0.93,7.11,2.04,15.64,3.17,24.35c-2.54,1.39-5.74,3.08-8.58,4.56
	C229.95,108.59,231.84,98.21,233.62,89.46z M264.31,64.14c0.38,3.14,4.27,42.85,7.67,81.18c-0.91,5.9,1.63,8.67,13.07,10.18
	c11.44,1.51,13.4-2.22,15.33-12.06c8.29-42.22,13.19-65.98,18.98-89.85c0,0,4.4-1.51,4.4-5.15c0-3.64-6.66-5.78-11.44-6.79
	c-4.78-1.01-6.4,0.4-6.79,3.77c-1.42,12.43-11.54,54.78-21.26,87.93c1.52-20.12,2.16-53.88,2.16-64.94
	c0-12.94-14.95-12.57-18.85-12.57c-3.9,0-5.4,1.26-5.78,3.02C263.3,59.86,263.93,60.99,264.31,64.14z M326.46,43.98
	c-0.11,1.69-11.92,72.77-13.05,79.75c-1.12,6.97-1.91,7.42-1.91,9.56c0,2.14,13.61,11.02,15.97,11.02
	c2.36,0,25.98-13.05,30.48-14.73c4.5-1.69,6.86-1.69,10.46-1.35c2.02-0.9,2.36-3.15,2.36-5.85c0-2.7-6.75-12.49-9-12.49
	s-4.27,0.79-8.1,3.49c-2.5,0.74-9.57,3.16-23.91,8.94c1.22-7.22,2.93-15.75,5.05-24.92c1.05,0.98,2.18,1.81,3,1.81
	c2.02,0,16.53-9.45,22.83-12.04c6.3-2.59,7.99-1.01,9.9-0.56c1.57-1.01,2.47-1.91,2.47-4.84s-6.07-14.4-10.24-14.4
	c-3.16,0-13.85,4.02-22.45,8.22c2.05-7.44,4.31-14.95,6.73-22.22c6.33-2.4,13.47-5.1,16.29-6.14c5.51-2.02,6.41-2.14,8.32-0.34
	c1.8-0.56,3.04-2.7,3.04-5.85c0-3.15-6.97-13.72-9.79-13.72s-10.46,3.94-19.12,6.86s-11.36,3.94-14.4,3.26
	c-3.04-0.67-4.72,0-6.07,2.36C326.13,40.71,326.58,42.29,326.46,43.98z M106.53,335.57c1.4-39.37,2.47-75.3,3.12-83.15
	c2.15-8.39,3.01-9.9,3.01-11.83c0-1.94,0.43-3.98-6.24-5.81c-6.67-1.83-10.97-1.61-12.16,0.97c-1.18,2.58-1.61,5.7-1.61,5.7
	c-3.1,10.4-9.4,29.08-15.01,53.63c-0.84-12.31-0.83-21.86-0.74-23.85c0.86-3.98,0.97-4.09,0.97-8.28s-0.22-8.28-0.22-9.79
	s-2.43-4.17-10.72-5.68c-6.44-1.17-8.78-1.03-9.75,1.97c-1.01,0.14-2.05,0.3-2.62,0.39c-1.29,0.22-1.94,1.18-2.9,8.39
	c-0.97,7.21-6.45,80.57-6.67,83.04c-0.22,2.47-0.75,4.3-1.94,4.41c0,2.15-0.75,5.38,6.02,7.1c6.78,1.72,10.22,2.37,10.22-3.23
	c0-3.48,0.96-32.98,1.68-54.77c1.15,14.25,2.61,26.82,3.03,29.09c0.65,3.55,1.32,7.72,7.02,8.9c5.7,1.18,9.58,3.53,10.66-6.91
	c0.53-5.12,4.7-21.95,9.29-38.71c-0.74,21.68-1.48,42.88-1.41,44.76c0.11,2.9-1.4,4.63-0.65,7.1c0.75,2.47,3.62,3.01,10.08,4.3
	c6.45,1.29,10.22,0.97,10.22-3.01c0-0.97-0.43-2.8-0.43-2.8C107.49,337.29,106.62,336.11,106.53,335.57z M156.53,323.51
	c-2.62-16.71-5.52-76.62-5.73-93.22c-0.05-4.36-6.45-7.21-15-7.21c-2.43,0-4.47,0.79-6.29,7.63c-5.45,20.45-15.67,70.49-20.37,98.23
	c-0.84,0.25-1.42,0.67-1.42,0.67c0.5,2.68,0.84,4.27,4.53,5.53c3.69,1.26,6.2,0.59,7.88-1.59c1.68-2.18,1.51-2.93,1.76-7.96
	c0.11-2.13,0.49-9.21,1.78-18.94c1.97,0.09,3.84-0.1,4.46-0.49c0.78-0.49,4.63-4.2,8.82-9.42c0.94,11.37,1.67,20.23,1.79,21.23
	c0.25,2.1-1.26,4.27,1.26,6.87c2.51,2.6,4.69,4.19,8.8,3.1C152.9,326.84,156.53,325.86,156.53,323.51z M125.81,293.22
	c1.8-9.6,4.41-20.37,8.2-31.01c0.63,7.06,1.32,15.11,1.97,22.86C133.11,287.4,128.81,290.84,125.81,293.22z M335.14,194.19
	c0-3.32-0.3-10.58-6.5-19.19c-6.19-8.61-15.11-10.12-19.79-10.12c-4.68,0-9.06,2.72-13.9,5.59c-1.46,0.87-3.02,1.69-4.49,2.43
	c-0.95-0.81-2.02-1.32-3.25-1.32c-3.86,0-27.5,13.06-45.91,15.55c-2.34,0.32-3.73-1.62-3.73-1.62c-2.24,1.49-3.11,3.98-1.24,9.95
	c0.15,0.49,0.31,0.93,0.46,1.36c-2.6-2.29-6.2-3.96-11.01-3.96c-2.42,0-5.63,0.96-9.34,4.08c-1.66-0.45-3.72-0.84-5.88-0.84
	c-3.56,0-11.01,16.95-11.01,30.33c0,21.05,20.19,27.31,20.08,42.21c-0.1,14.46-6.04,21.7-7.34,21.7c-1.3,0-1.19-3.78-1.94-7.66
	c-0.76-3.89-1.73-13.92-6.26-17.7c-1.84,3.67-6.69,19.54-6.69,28.71c0,0.36,0.02,0.71,0.04,1.06c-2.68-3.11-6.12-5.79-6.64-5.79
	c-0.87,0-1.3,0.24-2.84,0.98c-4.32,2.08-7.73,4.16-10.96,6.12c0.23-7.46,0.64-16.45,1.12-25.74c5.38-3.6,11.8-9.53,13.06-10.62
	c1.64-1.42,2.94-0.65,3.93-0.65c0.87-1.85,0.98-6.76,1.42-10.25c0.44-3.49-3.38-2.07-4.8-1.64c-0.94,0.29-7.89,2.61-12.51,4.15
	c0.61-9.85,1.25-19.1,1.81-26.23c3.18-2.17,7.18-4.85,9.44-6.09c4.14-2.29,6.65-3.27,8.29-2.94c0,0,0.76-0.98,0.76-2.94
	s-8.62-10.03-10.58-10.03c-1.96,0-20.07,8.94-21.16,8.94c-1.09,0-2.62-1.64-2.62-1.64c-2.84,1.53-2.18,4.58-1.85,6.54
	c0.31,1.86-2.22,35.33-2.76,86.68c-1.82,0.26-2.14-0.23-2.14-0.23s-1.16,1.55-0.44,2.73c3.23,5.29,10.25,9.27,13.09,9.27
	c4.69,0,19.85-10.47,23.12-12.11c3.27-1.64,4.58,0.55,4.58,0.55s1.02-0.34,1.59-1.35c2.9,3.75,7.47,5.82,11.41,5.82
	c6.37,0,28.8-8.21,28.8-35.09c0-24.61-21.24-21.69-21.24-41.66c0-9.78,3.08-16.86,6.33-21.36c0.11,8.36,0.26,16.85,0.26,18.66
	c0,2.16,1.3,0.43,1.3,0.43c3.35-4.1,7.66-7.23,9.82-9.39c2.16-2.16,5.4-7.23,5.4-11.77c0-1.44-0.45-3.5-1.45-5.64
	c0.48,0.16,0.97,0.23,1.47,0.23c0.91,0,5.29-0.68,11.52-2.2c-0.69,16.5-3.19,76.77-3.19,78.6c0,2.12-1.74,2.24-0.87,4.23
	c0.87,1.99,2.99,4.98,8.46,5.97c5.47,1,10.33,0.75,10.7-1.87c0.37-2.61-1.12-3.11-2.24-4.35c-0.45-10.99,6.52-72.66,8.9-89.5
	c3.41-1.36,6.86-2.88,10.26-4.59c-1.62,13.72-4.76,44.66-4.41,76.86c-0.35,0.94-1.52,1.64-0.47,4.33c1.05,2.69,1.05,3.86,6.43,5.14
	c5.38,1.29,7.95,2.22,9.35-1.05s0.82-4.33-0.7-5.26c-1.52-0.94-2.92-1.75-2.92-1.75c1.47-8.77,3.18-19.38,4.9-30.18
	c8.27,10.63,19.96,23.03,29.15,29.4c3.36,2.32,5.82,1.99,8.94-1.85c2.9-3.56,4.65-8.05,2.53-10.16c-1.44,0.68-4.08,0.68-4.08,0.68
	c-8.42-3.9-11.05-12.24-18.99-31.92C333.68,209.94,335.14,199.14,335.14,194.19z M319.73,188.75
	c-1.91,10.02-10.13,20.37-18.31,27.71c2.04-12.95,3.86-24.53,4.99-31.54c4.5-3.4,8.57-5.54,10.61-5.54
	C320.63,179.38,320.96,182.3,319.73,188.75z M378.86,248.12c0,0-2.07-10.91-4.28-30.79c-3.29-29.58-2.76-47.49-3.04-67.79
	c-0.09-6.9-2.76-7.18-10.22-8.56c-7.46-1.38-9.8,1.38-12.01,4.42c0,0,1.66,0.28,0.41,5.8c-1.24,5.52-11.33,39.21-20.57,88.5
	c-0.41,2.21-1.79,2.49-1.79,2.49c0.28,2.35-0.14,3.87,4.56,5.94c4.69,2.07,9.39,3.31,9.8-0.14c0,0-0.68-2.91-0.28-8.7
	c0.18-2.54,0.52-5.51,1-8.86c7.02-2.84,11.95-7.41,14.43-10.1c1.05,10,1.99,18.81,2.52,23.65c-0.55,7.32,0.97,5.25,1.66,8.28
	c0.69,3.04,4.14,3.45,9.66,3.45c8.43,0,9.25-1.1,9.8-3.73C381.07,249.37,380.1,248.81,378.86,248.12z M346.17,210.31
	c1.79-8.38,4.05-17.84,6.72-28.12c0.72,6.91,1.6,15.38,2.49,23.92C352.23,207.06,348.84,208.78,346.17,210.31z"/>
</svg>
